<?xml version="1.0" encoding="utf-8"?>
<!-- Generator: Adobe Illustrator 16.0.0, SVG Export Plug-In . SVG Version: 6.00 Build 0)  -->
<!DOCTYPE svg PUBLIC "-//W3C//DTD SVG 1.1//EN" "http://www.w3.org/Graphics/SVG/1.1/DTD/svg11.dtd">
<svg version="1.1" id="Layer_1" xmlns="http://www.w3.org/2000/svg" xmlns:xlink="http://www.w3.org/1999/xlink" x="0px" y="0px"
	 width="1007.594px" height="258.107px" viewBox="456.203 722.597 1007.594 258.107"
	 enable-background="new 456.203 722.597 1007.594 258.107" xml:space="preserve">
<title>Ativo 2</title>
<g id="Camada_2">
	<g id="Camada_1-2">
		<path fill="#FFFFFF" d="M1451.104,794.409c-5.773-1.7-14.395-4.271-25.941-7.513l-22.54-6.327l0,0l-3.955-1.028
			c-4.311-1.146-12.931-3.401-25.783-6.604l-21.947-5.418v0.316c-1.022-0.363-2.065-0.667-3.123-0.91
			c-23.49-5.457-41.245-9.055-52.555-11.349c-6.98-1.5-14.271-0.071-20.168,3.954c-4.497-5.868-11.003-9.868-18.27-11.23
			l-21.038-3.599c-2.593-2.394-5.87-3.915-9.372-4.35c-32.308-4.666-140.304-15.502-140.304-15.502v2.057l-6.288-0.514v1.226
			c-2.029-0.635-4.126-1.032-6.248-1.187c-23.727-1.582-41.798-2.333-53.187-2.729c-2.778-0.08-5.553,0.267-8.226,1.028v-1.385
			l-17.439-0.355c-13.247-0.277-22.065-0.316-26.534-0.316h-17.874v0.988c-2.372-0.716-4.838-1.076-7.315-1.067h-0.396
			c-17.874,0.198-31.398,0.593-40.059,0.909c-7.909,0.237-14.75,0.515-20.049,0.791l0,0l-12.892,0.712l-10.559,0.515l0,0
			l-8.858,0.514l0,0l-19.139,1.503l-10.44,0.751l0,0c-11.151,0.91-19.772,1.7-25.546,2.294l-7.672,0.751l0,0l-19.771,2.254
			c-11.863,1.306-20.563,2.412-26.416,3.203l-15.817,1.978v1.938c-3.184-0.772-6.485-0.934-9.729-0.475
			c-23.727,3.401-41.481,6.446-52.831,8.463c-7.301,1.327-13.836,5.35-18.31,11.271c-5.904-3.972-13.16-5.397-20.128-3.955
			c-23.727,4.706-41.324,8.7-52.555,11.31c-1.11,0.273-2.206,0.604-3.282,0.989v-0.356l-21.394,5.141
			c-5.813,1.464-14.513,3.639-26.06,6.684l-3.718,0.988l0,0l-22.619,6.169c-4.271,1.187-12.892,3.599-25.822,7.474l-12.733,3.955
			v182.34h133.226l0,0h689.3l0,0h3.954v-1.068c2.445,0.695,4.973,1.055,7.514,1.068h52.278c2.404,0.006,4.799-0.313,7.118-0.949
			v0.949h114.204V798.206L1451.104,794.409z"/>
		<path fill="#C41D1F" d="M551.347,790.376c0.158,30.555,0.29,53.557,0.396,69.005c0,15.265,0,26.732,0.198,34.364
			c0.158,30.739,0.276,53.741,0.355,69.006h-26.021c0-29.554-0.092-51.672-0.276-66.356l-26.1,2.848c0,28.261,0,49.431,0,63.509
			h-25.901V811.453c12.892-3.954,21.473-6.248,25.664-7.435c0,31.636,0,52.818,0,63.548c13.011-2.175,21.671-3.559,26.021-4.23
			c-0.158-33.297-0.25-55.415-0.276-66.356C536.992,793.975,545.613,791.8,551.347,790.376z"/>
		<path fill="#C41D1F" d="M642.694,962.751h-26.06c0-16.557-0.185-41.496-0.554-74.818l-26.139,2.254
			c0,16.055,0.158,40.243,0.475,72.564h-26.06c0-13.182-0.119-32.954-0.356-59.317c0-10.914-0.079-24.544-0.237-40.889
			s-0.276-35.537-0.355-57.577c0.016-4.704,1.389-9.304,3.954-13.247c1.939-3.534,5.24-6.12,9.135-7.157
			c11.468-2.689,28.789-6.604,52.001-11.231c3.522-0.733,7.144,0.696,9.214,3.639c2.719,3.721,4.111,8.246,3.955,12.852
			L642.694,962.751z M615.805,850.642c0-1.502,0-3.717,0-6.604c0-6.907-0.079-17.215-0.237-30.924
			c-5.773,0.949-14.474,2.412-26.1,4.508c0,7.909,0.079,20.049,0.237,36.421C595.558,853.252,604.258,852.065,615.805,850.642z"/>
		<path fill="#C41D1F" d="M706.006,820.509c0-4.587,0-11.389,0-20.404c-5.826,0.711-14.579,1.832-26.258,3.36
			c0.185,26.653,0.487,66.527,0.909,119.623l26.219-0.87c0-4.588,0-11.389,0-20.365l26.06-1.147c0,9.175,0.092,22.937,0.276,41.285
			c0.209,5.111-1.054,10.176-3.638,14.592c-1.714,3.567-5.224,5.928-9.175,6.169h-52.515c-3.885-0.199-7.395-2.38-9.293-5.773
			c-2.654-4.064-4.031-8.83-3.954-13.683c0-12.997-0.146-32.519-0.436-58.565c0-10.729-0.105-24.096-0.316-40.099
			c-0.211-16.002-0.355-34.983-0.435-56.943c-0.049-5.086,1.32-10.084,3.954-14.435c1.818-3.658,5.188-6.302,9.175-7.196
			c11.547-2.018,28.985-5.022,52.317-8.384c3.723-0.451,7.357,1.351,9.253,4.587c2.714,4.199,4.092,9.12,3.954,14.117
			c0,9.333,0,23.213,0.277,41.522C726.292,818.571,717.592,819.283,706.006,820.509z"/>
		<path fill="#C41D1F" d="M822.938,854.161c0,24.122,0.172,60.306,0.515,108.55h-26.061c0-19.034-0.158-47.651-0.474-85.852
			l-26.258,1.107c0,18.797,0.171,47.045,0.514,84.744h-26.06c0-23.226-0.185-52.225-0.554-86.998
			c-0.369-34.772-0.633-75.319-0.791-121.639c5.773-0.751,14.513-1.858,26.139-3.164c0,18.744,0.172,46.992,0.515,84.744
			l5.654-0.396c4.627-19.337,11.587-48.244,20.88-86.998c6.524-0.633,16.371-1.581,29.579-2.609
			c-5.378,19.772-13.445,49.272-24.122,88.184l7.435-0.396c3.932-0.034,7.539,2.176,9.293,5.695
			C821.77,843.697,823.083,848.898,822.938,854.161z"/>
		<path fill="#C41D1F" d="M838.678,744.702c4.39-0.316,13.128-0.949,26.218-1.7c0,14.526,0.105,43.842,0.316,87.947
			c-4.271,0-13.01,0.435-26.179,1.027c0-7.315,0-18.229,0-32.861C839.033,784.484,838.757,766.57,838.678,744.702z"/>
		<path fill="#C41D1F" d="M955.967,762.339c0,66.83,0,133.634,0,200.412h-26.021v-177.95c-5.853,0-14.632,0-26.416,0.514
			l0.356,177.317h-26.021c0-24.518-0.093-55.125-0.277-91.822s-0.303-79.551-0.355-128.56c5.813-0.276,14.553-0.711,26.218-1.106
			c8.818-0.277,22.026-0.673,39.545-0.87c4.015,0.209,7.58,2.632,9.253,6.287C954.884,751.391,956.168,756.841,955.967,762.339z"/>
		<path fill="#C41D1F" d="M968.146,743.481c4.39,0,13.168,0,26.257,0.316c0,14.657,0,44.29,0,88.896c-4.271,0-13.01,0-26.178-0.197
			c0-7.435,0-18.626,0-33.494L968.146,743.481z"/>
		<path fill="#C41D1F" d="M1058.979,812.21c0-4.983,0-12.338,0-22.066c-5.813-0.276-14.592-0.672-26.376-1.067
			c0,9.807,0,24.557,0,44.329c8.779,0.237,21.947,0.633,39.545,1.305c4.015,0.438,7.509,2.943,9.214,6.604
			c2.604,4.754,3.875,10.124,3.678,15.541c0,19.509-0.119,48.508-0.356,86.998c0.106,5.379-1.262,10.685-3.954,15.343
			c-1.655,3.707-5.206,6.211-9.254,6.525h-52.159c-4.05-0.344-7.587-2.879-9.214-6.604c-2.72-4.819-4.086-10.285-3.954-15.817
			c0-9.847,0-24.597,0-44.251l26.1,0.277c0,4.824,0,12.18,0,22.185l26.257,0.276c0-9.912,0-24.609,0-44.092
			c-8.739-0.197-21.828-0.475-39.268-0.751c-4.018-0.272-7.56-2.734-9.214-6.406c-2.73-4.888-4.097-10.419-3.954-16.016
			c0-9.847,0-22.185,0-37.014s0-32.11,0-51.764c-0.113-5.443,1.253-10.814,3.954-15.541c1.693-3.616,5.301-5.949,9.293-6.011
			c11.864,0.396,29.224,1.107,52.674,2.688c4.058,0.532,7.556,3.117,9.253,6.842c2.582,4.862,3.85,10.314,3.678,15.817
			c0,9.847,0,24.399,0,43.736C1079.346,813.119,1070.606,812.684,1058.979,812.21z"/>
		<path fill="#C41D1F" d="M1175.161,924.278c0,18.507-0.236,32.348-0.276,41.602h-78.298c0.237-54.335,0.448-99.547,0.633-135.638
			l0.355-81.186c13.208,1.068,21.908,1.938,26.179,2.373c-0.264,57.234-0.567,114.455-0.909,171.663
			C1146.136,923.566,1163.575,924.002,1175.161,924.278z"/>
		<path fill="#C41D1F" d="M1265.244,965.88h-26.06c0-17.638,0.197-44.185,0.593-79.643l-26.218-1.661
			c-0.158,17.979-0.356,45.08-0.594,81.304h-26.06c0-15.555,0.158-38.952,0.475-70.191c0-12.932,0.198-29.026,0.356-48.284
			c0.157-19.259,0.276-42.115,0.435-67.938c-0.168-4.988,1.214-9.906,3.954-14.078c1.857-3.276,5.521-5.093,9.254-4.587
			c11.626,1.661,29.064,4.271,52.317,8.384c3.971,0.926,7.329,3.561,9.174,7.196c2.487,4.382,3.731,9.358,3.599,14.395
			C1266.127,849.145,1265.719,907.512,1265.244,965.88z M1240.094,846.574c0-1.622,0-3.955,0-7.039
			c0-7.355,0.079-18.336,0.237-32.941c-5.773-0.751-14.513-1.938-26.218-3.36c0,9.016-0.105,22.619-0.316,40.81
			C1219.808,844.597,1228.547,845.427,1240.094,846.574z"/>
		<path fill="#C41D1F" d="M1330.453,838.941c0-3.954,0-10.163,0-18.19c-5.734-1.028-14.434-2.57-26.1-4.508
			c0,8.304-0.093,20.813-0.276,37.527c8.699,1.107,21.789,2.729,39.188,5.181c3.836,0.638,7.194,2.939,9.174,6.287
			c2.466,3.839,3.72,8.331,3.599,12.892c0,15.818-0.132,39.202-0.396,70.152c0.069,4.435-1.32,8.77-3.954,12.338
			c-2.045,3.155-5.497,5.117-9.254,5.26h-51.843c-3.834-0.192-7.3-2.344-9.174-5.694c-2.673-4.026-4.053-8.772-3.955-13.604
			c0-8.502,0-21.275,0.316-38.319c5.774,0.356,14.435,0.831,26.021,1.582c0,3.954,0,10.282,0,18.744l26.218,1.146
			c0.001-8.225,0.079-20.365,0.237-36.42c-8.739-0.791-21.749-1.938-39.069-3.322c-3.888-0.418-7.32-2.726-9.175-6.169
			c-2.685-4.211-4.061-9.124-3.954-14.117c0-8.502,0-19.219,0.237-32.07c0.237-12.853,0.197-27.682,0.355-44.844
			c-0.182-4.597,1.214-9.117,3.955-12.813c2.035-2.986,5.687-4.428,9.213-3.638c11.548,2.293,28.907,5.853,52.002,11.23
			c3.887,1.054,7.182,3.636,9.135,7.157c2.435,3.969,3.684,8.553,3.598,13.208c0,7.909-0.065,19.641-0.197,35.194
			C1350.62,842.185,1342,840.761,1330.453,838.941z"/>
		<path fill="#C41D1F" d="M1446.002,814.582V965.88h-26.021c0-28.262,0-49.431,0-63.509c-11.547-1.305-20.207-2.215-26.1-2.848
			c0,29.527-0.092,51.646-0.276,66.356h-25.901c0-15.265,0.079-28.67,0.237-40.217c0-11.548,0-21.117,0-28.789
			c0-17.294,0.065-28.749,0.197-34.364c0.185-34.588,0.316-57.59,0.396-69.005c12.971,3.243,21.552,5.497,25.783,6.604
			c-0.158,33.138-0.264,55.256-0.316,66.355c13.05,2.056,21.71,3.52,26.06,4.231c0-31.873,0-53.056,0-63.549
			C1431.687,810.391,1440.334,812.868,1446.002,814.582z"/>
	</g>
</g>
</svg>
