<svg xmlns="http://www.w3.org/2000/svg" viewBox="0 0 254.8 273.11"><defs><style>.cls-1{fill:#fff;}.cls-2{fill:#ff1419;}.cls-3{fill:#082c4e;}.cls-4{fill:none;}.cls-5{fill:#c41d1f;}</style></defs><title>Ativo 2</title><g id="Camada_2" data-name="Camada 2"><g id="Camada_1-2" data-name="Camada 1"><polygon class="cls-1" points="27.76 62.25 68.19 55.63 111.56 42.29 137.35 38.96 157.09 47.29 220.62 62.25 231.15 62.25 226.28 120.98 214.62 177.44 208.62 199.69 151.62 243.46 129.2 257.81 75.31 227.29 43.28 174.01 27.76 62.25"/><path class="cls-2" d="M124.91,152.44,122.55,131l.89-.9V118.64l-2,2-1-10.48,3-3V95.75l-4,4-1-10.47,5-5V72.85l-5.93,5.93-1-10.47,6.91-6.91V50.45c-.33.18-.68.36-1,.53l-6.85,6.85-.1-1.06-2.28-.57-10.81,3.37c-3.09,1.1-6.4,2.18-9.88,3.22-2.46.56-34.3,7.71-50.82,8.72l-1,.06c.11,1.11.24,2.3.37,3.55,0,0,.45,4.17,1.16,10.29l0,0c.37,3.22.78,6.65,1.22,10.24h0c1.53,12.81,3.49,28.13,4.87,35l.83,5.08s.63,3.88,1.72,9.73h0q.59,3.1,1.18,6.14c.23,1.17.46,2.32.69,3.44l0,0c.61,3,1.29,6.2,2,9.42l0,.05q1.11,5,2.18,9.26l.1-.09c.8,3.11,1.64,6.13,2.51,8.94l-.11.11c1,3.16,2,6,3,8.45l.12-.12c1.42,3.38,2.88,5.92,4.33,7.12,5,.1,12,0,12,0h44.61V187.34l-9.9,9.9,3.89-15.34,6-6V164.44l-2.11,2.11Z"/><path class="cls-1" d="M121,253.24h13L136.7,248H120.41Z"/><polygon class="cls-1" points="120.2 257.29 120.2 267.01 133.97 267.81 142.06 264.58 139.63 253.24 136.4 252.43 125.87 255.67 120.2 257.29"/><path class="cls-1" d="M123,176c1.42,2,1.47,3.6.18,4.53-1.13.82-2.67.3-4.07-1.61s-1.33-3.63-.15-4.48S121.65,174.12,123,176Zm-3.1,2.37c1.09,1.51,2.17,2,2.89,1.52s.52-1.8-.55-3.28-2.07-2.11-2.89-1.53S118.75,176.75,119.88,178.34Z"/><path class="cls-1" d="M89.89,160.48c-.44,2.4-1.57,3.56-3.13,3.28-1.38-.25-2.08-1.71-1.68-4s1.69-3.48,3.12-3.22S90.29,158.24,89.89,160.48ZM86,159.89c-.34,1.84,0,3,.91,3.14s1.65-.88,2-2.68.08-2.95-.91-3.13C87.18,157.07,86.39,158,86,159.89Z"/><path class="cls-1" d="M113.08,126.29c1,2.22.72,3.82-.72,4.47-1.28.57-2.68-.24-3.67-2.39s-.58-3.83.74-4.42S112.15,124.21,113.08,126.29Zm-3.5,1.69c.76,1.7,1.71,2.43,2.52,2.07s.86-1.66.11-3.33-1.6-2.48-2.52-2.07C108.92,125,108.78,126.2,109.58,128Z"/><path class="cls-1" d="M58.43,142.62c.24,2.43-.53,3.86-2.11,4-1.39.14-2.46-1.08-2.72-3.43s.67-3.81,2.12-3.95S58.21,140.35,58.43,142.62Zm-3.86.49c.18,1.86.85,2.85,1.73,2.77s1.35-1.3,1.17-3.12-.73-2.86-1.73-2.76S54.38,141.17,54.57,143.11Z"/><path class="cls-1" d="M109.33,160.3c-.37,4.44-2.23,6.74-5.11,6.5-2.55-.22-4.07-2.75-3.75-7.07s2.47-6.62,5.11-6.39S109.69,156.15,109.33,160.3Zm-7.09-.4c-.29,3.39.59,5.41,2.19,5.54,1.81.16,2.85-1.88,3.13-5.21s-.37-5.38-2.19-5.54C103.82,154.56,102.54,156.35,102.24,159.9Z"/><path class="cls-1" d="M91.91,175.08c-.38,4.43-2.23,6.74-5.12,6.49-2.54-.22-4.07-2.75-3.74-7.06s2.46-6.62,5.11-6.4S92.26,170.93,91.91,175.08Zm-7.1-.4c-.29,3.39.59,5.4,2.2,5.54,1.8.15,2.84-1.88,3.13-5.21s-.37-5.39-2.2-5.54C86.4,169.34,85.11,171.13,84.81,174.68Z"/><path class="cls-1" d="M92.83,136.44c2.82,3.44,3.1,6.39.86,8.23-2,1.61-4.84.86-7.61-2.46s-2.85-6.47-.79-8.15S90.19,133.22,92.83,136.44Zm-5.37,4.66c2.16,2.63,4.19,3.46,5.44,2.44s.73-3.33-1.39-5.91-4-3.61-5.43-2.45C84.88,136.16,85.21,138.34,87.46,141.1Z"/><path class="cls-1" d="M61.24,118.52c-3.09,3.2-6,3.82-8.07,1.8-1.83-1.77-1.41-4.7,1.56-7.84s6.09-3.57,8-1.73S64.14,115.53,61.24,118.52ZM56,113.73c-2.36,2.44-3,4.56-1.79,5.68s3.39.34,5.71-2.06,3.12-4.41,1.8-5.68C60.6,110.59,58.47,111.17,56,113.73Z"/><path class="cls-1" d="M70,164.2l0,0-2.54-.51.6-1.25,3.18.64,1.16,1L64,174.09,62.71,173Z"/><path class="cls-1" d="M112.15,141.87l0,0L111,144.21l-1.06-.91,1.45-2.89,1.24-.88,7.54,10.69-1.39,1Z"/><path class="cls-1" d="M71.62,181.43v0l.42,1.4-.78,0-.52-1.75.18-.83,7.19,1.51-.2.94Z"/><path class="cls-1" d="M67.44,131.09h0l-1.19.83-.28-.73,1.5-1,.84-.1.84,7.3-.95.11Z"/><path class="cls-1" d="M72.68,95h0l-.46,1.38-.66-.42.58-1.72.62-.58,5,5.34-.7.66Z"/><path class="cls-1" d="M75.79,149.54v0l-.46,1.37-.66-.41.58-1.73.62-.58,5,5.34-.7.66Z"/><path class="cls-1" d="M85.54,121.8h0l-1.44.17.1-.77L86,121l.78.32-2.71,6.82-.89-.35Z"/><path class="cls-1" d="M89.74,101.4l0,0-1.15,2.31-1-.9L89,99.94l1.23-.87,7.55,10.68-1.4,1Z"/><polygon class="cls-2" points="169.13 198.19 135.38 164.44 135.38 175.89 157.68 198.19 169.13 198.19"/><path class="cls-2" d="M217.79,75.12c.13-1.25.26-2.44.37-3.55-1.41-.08-2.8-.17-4.19-.27Z"/><path class="cls-2" d="M135.38,72.85V84.3l70.77,70.77c.23-1.12.46-2.27.69-3.44q.6-3,1.18-6.14Z"/><path class="cls-2" d="M173,64.67c-6-1.58-11.55-3.31-16.54-5.1l56.33,56.33c.48-3.41.94-6.78,1.37-10.07Z"/><path class="cls-2" d="M201.28,70.06c-4.72-.59-9.24-1.3-13.55-2.1l27.71,27.71c.44-3.59.85-7,1.21-10.24Z"/><path class="cls-2" d="M136.41,51c-.35-.17-.7-.35-1-.53V61.4l74.35,74.35c.55-3.27,1.07-6.57,1.58-9.87Z"/><path class="cls-2" d="M135.38,118.64v11.45l61.1,61.1c1-2.49,2-5.29,3-8.45Z"/><path class="cls-2" d="M135.38,95.75v11.44L202,173.78q1.08-4.25,2.19-9.26Z"/><polygon class="cls-2" points="192.03 198.19 135.38 141.54 135.38 152.99 180.58 198.19 192.03 198.19"/><path class="cls-3" d="M46.58,198.19h9.69c-4.59-9.41-8.25-22.88-12.8-45.72C37.15,120.74,32.89,81.6,31.2,64.55,83.72,62.86,116.43,46,129.11,38h0c12.67,8,45.38,24.86,97.91,26.55-1.69,17-6,56.2-12.27,87.92-4.55,22.84-8.22,36.31-12.8,45.72h9.69c4.37-10.12,7.84-23.69,11.94-44.29,8.46-42.5,13.2-97.33,13.2-97.33-71.44.32-107.67-28.77-107.67-28.77S92.88,56.89,21.44,56.57c0,0,4.74,54.83,13.2,97.33C38.74,174.5,42.21,188.07,46.58,198.19Z"/><path class="cls-3" d="M138.84,248c-3.87,2.25-7.23,4.18-9.73,5.6h0c-2.5-1.42-5.87-3.35-9.73-5.6H103c14.07,8.44,26.15,15.16,26.15,15.16s12.08-6.72,26.15-15.16Z"/><path class="cls-1" d="M116,34.4a31.67,31.67,0,0,0,11.57.76,30.14,30.14,0,0,1-11-3.8l-.28-.17L126.43,14.4l1.67,17.41,1.35-17.31,10.14,16.64a30.32,30.32,0,0,1-10.94,4,31.52,31.52,0,0,0,11.25-.87l-1.32,134.57-.93,0,.51-73.74-3.72,36.26-1.42-24L131,146l-2.75-98.22-1,98.25-2.72-38.52-1,24-4.37-36.2L121,169h-1.23Z"/><path class="cls-4" d="M119.16,95.28l4.37,36.2,1-24L127.24,146l1-98.25L131,146l2-38.55,1.42,24,3.72-36.26-.51,73.74.93,0L139.9,34.28a31.36,31.36,0,0,1-11.25.87,30.34,30.34,0,0,0,10.94-4L129.45,14.5,128.1,31.81,126.43,14.4,116.38,31.19l.28.17a30.21,30.21,0,0,0,11,3.8A31.82,31.82,0,0,1,116,34.4L119.76,169H121Zm20-59.56c-.34,12-1,53.07-1,53.07-.31-11.91-.88-21.78-1.91-29.74l.17,18.75L133.62,50l-.42,18.15c-1.45-23.64-2-28.51-3.95-30.8C129.25,37.32,136.45,37.69,139.13,35.72ZM127,37.34c-1.86,2.31-2.37,7.19-3.4,30.85l-.74-18.14-2.24,27.87-.17-18.75c-.89,8-1.28,17.86-1.38,29.77,0,0-1.42-41.08-2-53C119.85,37.81,127,37.34,127,37.34Z"/><path class="cls-4" d="M121.53,258.09A15.53,15.53,0,0,0,121,264c1.09.9,5.86,1.74,8.84,2.53,2.93-.83,7.72-1.76,8.79-2.68.44-2-.5-6.14-1.62-9.6A23,23,0,0,1,121.53,258.09Z"/><path class="cls-1" d="M166,160.56c-6.87,1.13-8.35,3.33-10.06,5.89s-4,6-11.33,7.15c-.83.13-3.94.23-7.16.29a21.85,21.85,0,0,1,.52,7.68l12.42-.09c8.46-.07,9.13-2.62,10.45-7.72,1-4.06,2.39-9.22,8.47-13.36A18.64,18.64,0,0,0,166,160.56ZM160.33,169c-.79,2.94-1.18,8-4.31,9.87s-16,1-16,1l9.91-1.63-6.24-.79,9.86-1.22-7.78-.78,9.78-1.75a14,14,0,0,1-3.31-.93c4.79-.61,5.81-4.59,7-6.75s5.22-3,5.22-3A10.78,10.78,0,0,0,160.33,169Z"/><path class="cls-1" d="M108.15,181.8l12.42-.09a23.94,23.94,0,0,1-.17-2.57A22.09,22.09,0,0,1,121,174c-3.21,0-6.33-.06-7.15-.19-7.38-1.08-9.65-4.35-11.47-7s-3.26-4.71-10.16-5.73a19,19,0,0,0-3.31-.11c6.15,4,7.58,9.19,8.71,13.22C99,179.32,99.69,181.87,108.15,181.8ZM93.79,163.57s4.06.75,5.28,2.9,2.3,6.11,7.1,6.65a14.54,14.54,0,0,1-3.29,1l9.8,1.6-7.76.89,9.88,1.08-6.22.88,9.94,1.47s-12.86,1.06-16-.74-3.65-6.88-4.49-9.81A10.84,10.84,0,0,0,93.79,163.57Z"/><path class="cls-3" d="M142.73,248h-7.8a16.78,16.78,0,0,1-12.19,3.91,15.1,15.1,0,0,1-.54-3.91h-6.3c0,.36,0,.74,0,1.13a22.32,22.32,0,0,0,.51,3.61c-1.79,5.87-2.27,10.35-1.4,13.29,1.46,4.9,8.64,5.29,14,6.84l.91.26c6.86-1.95,13.44-2.64,14.75-7.35,1.42-5.06-1.6-13.56-2.64-16.23A9.18,9.18,0,0,0,142.73,248Zm-4.06,15.89c-1.07.92-5.84,1.85-8.79,2.68-3-.78-7.75-1.63-8.84-2.53a15.53,15.53,0,0,1,.49-5.93,22.93,22.93,0,0,0,15.52-3.82C138.17,257.73,139.11,261.85,138.67,263.87Z"/><path class="cls-3" d="M92.35,175.5c.91,3.27,1.9,6.81,5.42,9h32.81c-2.37-.34-4.25-3.52-4.28-7.4,0-4.12,2-7.48,4.59-7.5s4.7,3.3,4.74,7.43c0,3.92-1.83,7.15-4.23,7.47H160c4.16-2.24,5.17-6.08,6.08-9.61,1.32-5.07,2.69-10.31,13.37-13.71l9.47-3-9.81-1.83c-.09,0-8.81-1.62-14-.76-9.25,1.51-11.72,5.2-13.71,8.17-1.44,2.15-2.52,3.75-6.51,4.63l1.37-138.26L127.84,0,109.63,30.44l3.83,138.23c-4-.82-5.12-2.4-6.59-4.53-2-2.94-4.58-6.59-13.85-8-5.25-.77-13.94,1-14,1l-9.77,2L78.74,162C89.48,165.23,90.94,170.45,92.35,175.5ZM156,166.45c1.71-2.56,3.19-4.76,10.06-5.89a18.64,18.64,0,0,1,3.31-.16c-6.08,4.14-7.42,9.3-8.47,13.36-1.32,5.1-2,7.65-10.45,7.72l-12.42.09a21.85,21.85,0,0,0-.52-7.68c3.22-.06,6.33-.16,7.16-.29C152,172.4,154.19,169.1,156,166.45ZM116.66,31.36l-.28-.17L126.43,14.4l1.67,17.41,1.35-17.31,10.14,16.64a30.32,30.32,0,0,1-10.94,4,31.52,31.52,0,0,0,11.25-.87l-1.32,134.57-.93,0,.51-73.74-3.72,36.26-1.42-24L131,146l-2.75-98.22-1,98.25-2.72-38.52-1,24-4.37-36.2L121,169h-1.23L116,34.4a31.67,31.67,0,0,0,11.57.76A30.14,30.14,0,0,1,116.66,31.36ZM92.17,161.13c6.9,1,8.41,3.2,10.16,5.73s4.09,5.89,11.47,7c.82.13,3.94.17,7.15.19a22.09,22.09,0,0,0-.55,5.12,23.94,23.94,0,0,0,.17,2.57l-12.42.09c-8.46.07-9.17-2.48-10.58-7.56-1.13-4-2.56-9.17-8.71-13.22A19,19,0,0,1,92.17,161.13Z"/><path class="cls-1" d="M133.41,184.54l0,0a7.76,7.76,0,0,0,1.6-2.54,10.82,10.82,0,0,0,.57-5.58,16.57,16.57,0,0,1-1.54,5.2,7.53,7.53,0,0,1-1.55,2.09,3.37,3.37,0,0,1-1.52.86Z"/><path class="cls-1" d="M127.3,184.54h2.41c-2.74-.66-4.2-5.13-4.71-8.07C124.62,179.31,125.43,182.7,127.3,184.54Z"/><path class="cls-3" d="M102.5,179.28c3.16,1.8,16,.74,16,.74l-9.94-1.47,6.22-.88-9.88-1.08,7.76-.89-9.8-1.6a14.54,14.54,0,0,0,3.29-1c-4.8-.54-5.89-4.51-7.1-6.65s-5.28-2.9-5.28-2.9a10.84,10.84,0,0,1,4.22,5.9C98.85,172.4,99.33,177.47,102.5,179.28Z"/><path class="cls-3" d="M159.22,166c-1.17,2.16-2.19,6.14-7,6.75a14,14,0,0,0,3.31.93l-9.78,1.75,7.78.78-9.86,1.22,6.24.79L140,179.86s12.87.86,16-1,3.52-6.93,4.31-9.87a10.78,10.78,0,0,1,4.11-6S160.4,163.84,159.22,166Z"/><path class="cls-3" d="M120.49,59.17l.17,18.75,2.24-27.87.74,18.14c1-23.66,1.54-28.54,3.4-30.85,0,0-7.19.47-9.9-1.45.55,12,2,53.05,2,53.05C119.21,77,119.6,67.15,120.49,59.17Z"/><path class="cls-3" d="M133.62,50l2.74,27.83-.17-18.75c1,8,1.6,17.83,1.91,29.74,0,0,.69-41.09,1-53.07-2.68,2-9.88,1.6-9.88,1.6,1.9,2.29,2.5,7.16,3.95,30.8Z"/><path class="cls-1" d="M134.2,184.54a8.62,8.62,0,0,0,.41-.8,10.67,10.67,0,0,0,.72-5.72,15.55,15.55,0,0,1-1.64,5.33,10,10,0,0,1-.81,1.19Z"/><path class="cls-1" d="M126.41,184.54a15,15,0,0,1-2.52-6.43,10.92,10.92,0,0,0,1.21,6.43Z"/><path class="cls-1" d="M251.59,200.89c-1.46-.43-3.64-1.08-6.56-1.9l-5.7-1.6v0l-1-.26c-1.09-.29-3.27-.86-6.52-1.67l-5.55-1.37v.08a7.15,7.15,0,0,0-.79-.23c-5.94-1.38-10.43-2.29-13.29-2.87a6.59,6.59,0,0,0-5.1,1,7.58,7.58,0,0,0-4.62-2.84l-5.32-.91a4.27,4.27,0,0,0-2.37-1.1c-8.17-1.18-35.48-3.92-35.48-3.92v.52l-1.59-.13V184a7,7,0,0,0-1.58-.3c-6-.4-10.57-.59-13.45-.69a6.87,6.87,0,0,0-2.08.26v-.35l-4.41-.09c-3.35-.07-5.58-.08-6.71-.08l-4.52,0V183a6.32,6.32,0,0,0-1.85-.27H123c-4.52.05-7.94.15-10.13.23-2,.06-3.73.13-5.07.2v0l-3.26.18-2.67.13v0l-2.24.13v0l-4.84.38-2.64.19v0c-2.82.23-5,.43-6.46.58l-1.94.19v0l-5,.57c-3,.33-5.2.61-6.68.81l-4,.5v.49a6.54,6.54,0,0,0-2.46-.12c-6,.86-10.49,1.63-13.36,2.14a7.48,7.48,0,0,0-4.63,2.85,6.69,6.69,0,0,0-5.09-1c-6,1.19-10.45,2.2-13.29,2.86a8.44,8.44,0,0,0-.83.25v-.09L23,195.5c-1.47.37-3.67.92-6.59,1.69l-.94.25v0L9.75,199c-1.08.3-3.26.91-6.53,1.89l-3.22,1V248H33.69v0H208v0h1v-.27a7.09,7.09,0,0,0,1.9.27h13.22a6.74,6.74,0,0,0,1.8-.24V248H254.8V201.85Z"/><path class="cls-5" d="M24.06,199.87q.06,11.59.1,17.45c0,3.86,0,6.76.05,8.69q.06,11.66.09,17.45H17.72q0-11.21-.07-16.78l-6.6.72q0,10.72,0,16.06H4.5V205.2c3.26-1,5.43-1.58,6.49-1.88q0,12,0,16.07c3.29-.55,5.48-.9,6.58-1.07q-.06-12.63-.07-16.78C20.43,200.78,22.61,200.23,24.06,199.87Z"/><path class="cls-5" d="M47.16,243.46H40.57q0-6.28-.14-18.92l-6.61.57q0,6.09.12,18.35H27.35q0-5-.09-15,0-4.14-.06-10.34t-.09-14.56a6.18,6.18,0,0,1,1-3.35,3.73,3.73,0,0,1,2.31-1.81c2.9-.68,7.28-1.67,13.15-2.84a2.28,2.28,0,0,1,2.33.92,5.21,5.21,0,0,1,1,3.25Zm-6.8-28.35c0-.38,0-.94,0-1.67q0-2.62-.06-7.82c-1.46.24-3.66.61-6.6,1.14q0,3,.06,9.21C35.24,215.77,37.44,215.47,40.36,215.11Z"/><path class="cls-5" d="M63.17,207.49c0-1.16,0-2.88,0-5.16q-2.21.27-6.64.85.07,10.11.23,30.25l6.63-.22c0-1.16,0-2.88,0-5.15l6.59-.29q0,3.48.07,10.44a6.76,6.76,0,0,1-.92,3.69,2.76,2.76,0,0,1-2.32,1.56H53.53A2.86,2.86,0,0,1,51.18,242a6.15,6.15,0,0,1-1-3.46q0-4.93-.11-14.81,0-4.07-.08-10.14t-.11-14.4a6.92,6.92,0,0,1,1-3.65,3.43,3.43,0,0,1,2.32-1.82c2.92-.51,7.33-1.27,13.23-2.12a2.38,2.38,0,0,1,2.34,1.16,6.26,6.26,0,0,1,1,3.57c0,2.36,0,5.87.07,10.5C68.3,207,66.1,207.18,63.17,207.49Z"/><path class="cls-5" d="M92.74,216q0,9.15.13,27.45H86.28q0-7.22-.12-21.71l-6.64.28q0,7.13.13,21.43H73.06q0-8.81-.14-22t-.2-30.76c1.46-.19,3.67-.47,6.61-.8q0,7.11.13,21.43l1.43-.1c1.17-4.89,2.93-12.2,5.28-22,1.65-.16,4.14-.4,7.48-.66-1.36,5-3.4,12.46-6.1,22.3l1.88-.1a2.6,2.6,0,0,1,2.35,1.44A7.22,7.22,0,0,1,92.74,216Z"/><path class="cls-5" d="M96.72,188.32c1.11-.08,3.32-.24,6.63-.43q0,5.51.08,22.24c-1.08,0-3.29.11-6.62.26,0-1.85,0-4.61,0-8.31S96.74,193.85,96.72,188.32Z"/><path class="cls-5" d="M126.38,192.78q0,25.35,0,50.68H119.8l0-45c-1.48,0-3.7,0-6.68.13l.09,44.84h-6.58q0-9.3-.07-23.22t-.09-32.51c1.47-.07,3.68-.18,6.63-.28,2.23-.07,5.57-.17,10-.22a2.73,2.73,0,0,1,2.34,1.59A7.74,7.74,0,0,1,126.38,192.78Z"/><path class="cls-5" d="M129.46,187.22c1.11,0,3.33,0,6.64.08q0,5.56,0,22.48c-1.08,0-3.29,0-6.62-.05,0-1.88,0-4.71,0-8.47Z"/><path class="cls-5" d="M152.43,204.6c0-1.26,0-3.12,0-5.58-1.47-.07-3.69-.17-6.67-.27,0,2.48,0,6.21,0,11.21,2.22.06,5.55.16,10,.33a2.92,2.92,0,0,1,2.33,1.67,7.6,7.6,0,0,1,.93,3.93q0,7.4-.09,22a7.46,7.46,0,0,1-1,3.88,2.8,2.8,0,0,1-2.34,1.65H142.4a2.8,2.8,0,0,1-2.33-1.67,7.76,7.76,0,0,1-1-4c0-2.49,0-6.22,0-11.19l6.6.07c0,1.22,0,3.08,0,5.61l6.64.07q0-3.76,0-11.15c-2.21-.05-5.52-.12-9.93-.19a2.76,2.76,0,0,1-2.33-1.62,7.89,7.89,0,0,1-1-4.05c0-2.49,0-5.61,0-9.36s0-8.12,0-13.09a7.6,7.6,0,0,1,1-3.93,2.64,2.64,0,0,1,2.35-1.52c3,.1,7.39.28,13.32.68a3,3,0,0,1,2.34,1.73,8,8,0,0,1,.93,4c0,2.49,0,6.17,0,11.06C157.58,204.83,155.37,204.72,152.43,204.6Z"/><path class="cls-5" d="M181.81,232.94c0,4.68-.06,8.18-.07,10.52h-19.8q.09-20.61.16-34.3l.09-20.53c3.34.27,5.54.49,6.62.6q-.1,21.71-.23,43.41C174.47,232.76,178.88,232.87,181.81,232.94Z"/><path class="cls-5" d="M204.59,243.46H198q0-6.69.15-20.14l-6.63-.42q-.06,6.82-.15,20.56h-6.59q0-5.9.12-17.75c0-3.27.05-7.34.09-12.21s.07-10.65.11-17.18a6.11,6.11,0,0,1,1-3.56,2.33,2.33,0,0,1,2.34-1.16c2.94.42,7.35,1.08,13.23,2.12a3.49,3.49,0,0,1,2.32,1.82,7,7,0,0,1,.91,3.64Q204.77,221.32,204.59,243.46Zm-6.36-30.17c0-.41,0-1,0-1.78q0-2.79.06-8.33c-1.46-.19-3.67-.49-6.63-.85q0,3.42-.08,10.32C193.1,212.79,195.31,213,198.23,213.29Z"/><path class="cls-5" d="M221.08,211.36c0-1,0-2.57,0-4.6-1.45-.26-3.65-.65-6.6-1.14q0,3.15-.07,9.49c2.2.28,5.51.69,9.91,1.31a3.33,3.33,0,0,1,2.32,1.59,5.75,5.75,0,0,1,.91,3.26q0,6-.1,17.74a5.12,5.12,0,0,1-1,3.12,2.92,2.92,0,0,1-2.34,1.33H211a2.82,2.82,0,0,1-2.32-1.44,6,6,0,0,1-1-3.44c0-2.15,0-5.38.08-9.69,1.46.09,3.65.21,6.58.4,0,1,0,2.6,0,4.74l6.63.29q0-3.12.06-9.21c-2.21-.2-5.5-.49-9.88-.84a3,3,0,0,1-2.32-1.56,6.39,6.39,0,0,1-1-3.57c0-2.15,0-4.86.06-8.11s.05-7,.09-11.34a5.1,5.1,0,0,1,1-3.24,2.23,2.23,0,0,1,2.33-.92c2.92.58,7.31,1.48,13.15,2.84a3.77,3.77,0,0,1,2.31,1.81,6.17,6.17,0,0,1,.91,3.34q0,3-.05,8.9C226.18,212.18,224,211.82,221.08,211.36Z"/><path class="cls-5" d="M250.3,205.2v38.26h-6.58q0-10.72,0-16.06c-2.92-.33-5.11-.56-6.6-.72q0,11.2-.07,16.78H230.5q0-5.79.06-10.17c0-2.92,0-5.34,0-7.28q0-6.56.05-8.69.07-13.12.1-17.45c3.28.82,5.45,1.39,6.52,1.67q-.06,12.57-.08,16.78c3.3.52,5.49.89,6.59,1.07q0-12.09,0-16.07Q248.15,204.55,250.3,205.2Z"/></g></g></svg>